<svg xmlns="http://www.w3.org/2000/svg" viewBox="0 0 512 512"><path fill="#FFA000" d="M464 352H48c-8.8 0-16-7.2-16-16v-32c0-8.8 7.2-16 16-16h416c8.8 0 16 7.2 16 16v32c0 8.8-7.2 16-16 16z"/><path fill="#F57F17" d="M432 288H80c-8.8 0-16-7.2-16-16v-32c0-8.8 7.2-16 16-16h352c8.8 0 16 7.2 16 16v32c0 8.8-7.2 16-16 16z"/><path fill="#8D6E63" d="M464 224H48c-8.8 0-16-7.2-16-16v-32c0-8.8 7.2-16 16-16h416c8.8 0 16 7.2 16 16v32c0 8.8-7.2 16-16 16z"/><path fill="#4CAF50" d="M432 160H80c-8.8 0-16-7.2-16-16v-32c0-8.8 7.2-16 16-16h352c8.8 0 16 7.2 16 16v32c0 8.8-7.2 16-16 16z"/><path fill="#FF5722" d="M400 96H112c-8.8 0-16-7.2-16-16V48c0-8.8 7.2-16 16-16h288c8.8 0 16 7.2 16 16v32c0 8.8-7.2 16-16 16z"/></svg>